<?xml version="1.0" ?><!DOCTYPE svg  PUBLIC '-//W3C//DTD SVG 1.1//EN'  'http://www.w3.org/Graphics/SVG/1.1/DTD/svg11.dtd'><svg enable-background="new 0 0 512 512" id="Layer_1" version="1.1" viewBox="0 0 512 512" xml:space="preserve" xmlns="http://www.w3.org/2000/svg" xmlns:xlink="http://www.w3.org/1999/xlink"><g><g><circle cx="256" cy="256" fill="#E20505" r="244.4"/></g></g><g><g><g><path d="M234.2,487c-6.6-0.6-11.4-6.5-10.8-13.1l0,0c0.6-6.6,6.5-11.5,13.1-10.8l0,0c6.6,0.6,11.4,6.5,10.8,13.1     l0,0c-0.6,6.2-5.8,10.9-11.9,10.9l0,0C235,487,234.6,487,234.2,487z M265.2,476.1c-0.6-6.6,4.2-12.5,10.8-13.1l0,0     c6.6-0.6,12.5,4.2,13.1,10.8l0,0c0.6,6.6-4.2,12.5-10.8,13.1l0,0l0,0l0,0c-0.4,0-0.8,0.1-1.2,0.1l0,0     C271,487,265.8,482.3,265.2,476.1z M190.9,478.7c-6.4-1.9-10-8.5-8.2-14.9l0,0c1.9-6.4,8.5-10,14.9-8.2l0,0     c6.4,1.9,10,8.5,8.2,14.9l0,0c-1.5,5.2-6.3,8.6-11.5,8.6l0,0C193.1,479.2,192,479.1,190.9,478.7z M306.7,470.5     c-1.9-6.4,1.8-13,8.1-14.9l0,0c6.4-1.9,13,1.8,14.9,8.1l0,0c1.9,6.4-1.8,13-8.1,14.9l0,0c-1.1,0.3-2.3,0.5-3.4,0.5l0,0     C313,479.1,308.2,475.7,306.7,470.5z M149.9,462.4L149.9,462.4L149.9,462.4c-5.9-3-8.2-10.3-5.2-16.2l0,0     c3-5.9,10.3-8.2,16.2-5.2v0c5.9,3,8.2,10.3,5.2,16.2l0,0c-2.1,4.1-6.3,6.5-10.7,6.5l0,0C153.6,463.7,151.7,463.3,149.9,462.4z      M346.3,457c-3-5.9-0.7-13.1,5.1-16.2l0,0c5.9-3,13.1-0.7,16.2,5.1l0,0c3,5.9,0.7,13.1-5.1,16.2l0,0c0,0,0,0,0,0l0,0     c-1.8,0.9-3.6,1.3-5.5,1.3l0,0C352.7,463.5,348.5,461.1,346.3,457z M112.8,438.6c-5.2-4.1-6.1-11.6-2-16.8l0,0     c4.1-5.2,11.6-6.1,16.8-2l0,0c5.2,4.1,6.1,11.6,2,16.9l0,0c-2.4,3-5.9,4.6-9.4,4.6l0,0C117.6,441.1,115,440.3,112.8,438.6z      M382.7,436.3c-4.1-5.2-3.2-12.8,2-16.8l0,0c5.2-4.1,12.8-3.2,16.8,2l0,0c4.1,5.2,3.2,12.8-2,16.9l0,0c-2.2,1.7-4.8,2.6-7.4,2.6     l0,0C388.6,440.8,385.1,439.3,382.7,436.3z M80.9,408.2c-4.3-5-3.8-12.6,1.2-16.9l0,0c5-4.4,12.6-3.8,16.9,1.2l0,0     c4.3,5,3.8,12.6-1.2,16.9l0,0c-2.3,2-5.1,2.9-7.9,2.9l0,0C86.6,412.3,83.2,410.9,80.9,408.2z M414.5,409     c-5-4.3-5.6-11.9-1.2-16.9v0c4.3-5,11.9-5.5,16.9-1.2l0,0c5,4.3,5.5,11.9,1.2,16.9l0,0l0,0l0,0c-2.4,2.7-5.7,4.1-9.1,4.1l0,0     C419.6,411.9,416.8,411,414.5,409z M55.2,372.3c-3.3-5.7-1.4-13.1,4.4-16.4l0,0c5.7-3.3,13.1-1.4,16.4,4.4l0,0     c3.3,5.7,1.4,13.1-4.4,16.4l0,0c-1.9,1.1-4,1.6-6,1.6l0,0C61.5,378.3,57.4,376.1,55.2,372.3z M440.6,376.3     c-5.7-3.3-7.7-10.7-4.4-16.4l0,0c3.3-5.7,10.6-7.7,16.4-4.4l0,0c5.7,3.3,7.7,10.7,4.4,16.4l0,0l0,0l0,0c-2.2,3.8-6.3,6-10.4,6     l0,0C444.6,377.9,442.5,377.4,440.6,376.3z M36.8,332.2c-2.2-6.3,1.1-13.1,7.4-15.3l0,0c6.3-2.2,13.1,1.1,15.3,7.4l0,0     c2.2,6.3-1.1,13.1-7.4,15.3l0,0c-1.3,0.4-2.6,0.7-3.9,0.7l0,0C43.2,340.3,38.5,337.2,36.8,332.2z M460.1,339.2     c-6.3-2.2-9.6-9-7.4-15.3l0,0c2.2-6.3,9-9.6,15.3-7.4l0,0c6.3,2.2,9.6,9,7.4,15.3l0,0l0,0l0,0c-1.7,5-6.4,8.1-11.3,8.1l0,0     C462.7,339.8,461.4,339.6,460.1,339.2z M26.4,289.4L26.4,289.4L26.4,289.4c-0.9-6.6,3.6-12.7,10.2-13.6l0,0     c6.6-1,12.6,3.6,13.6,10.2v0c0.9,6.5-3.6,12.6-10.2,13.6l0,0c-0.6,0.1-1.1,0.1-1.7,0.1l0,0C32.4,299.7,27.3,295.3,26.4,289.4z      M472.1,299.1c-6.6-0.9-11.1-7-10.2-13.6l0,0c0.9-6.6,7-11.1,13.6-10.2l0,0c6.6,0.9,11.1,7,10.2,13.6l0,0l0,0l0,0     c-0.8,6-6,10.3-11.9,10.3l0,0C473.3,299.2,472.7,299.1,472.1,299.1z M35.7,257.9c-6.6-0.3-11.8-5.9-11.5-12.5l0,0     c0.3-6.6,5.9-11.8,12.5-11.4l0,0c6.6,0.3,11.7,5.9,11.4,12.5l0,0c-0.3,6.4-5.6,11.5-12,11.5l0,0     C36.1,257.9,35.9,257.9,35.7,257.9z M463.8,246c-0.3-6.6,4.8-12.2,11.4-12.6l0,0c6.6-0.3,12.2,4.8,12.6,11.4l0,0     c0.3,6.6-4.8,12.2-11.4,12.5l0,0c-0.2,0-0.4,0-0.6,0l0,0C469.4,257.4,464.1,252.4,463.8,246z M39.3,216.2     c-6.5-1.5-10.4-8-8.9-14.5l0,0c1.5-6.4,8-10.4,14.5-8.9l0,0c6.5,1.5,10.4,8,8.9,14.5l0,0c-1.3,5.5-6.2,9.2-11.7,9.2l0,0     C41.1,216.5,40.2,216.4,39.3,216.2z M458.2,206.8c-1.6-6.4,2.4-12.9,8.8-14.5l0,0c6.4-1.6,12.9,2.4,14.5,8.8l0,0     c1.6,6.4-2.4,12.9-8.8,14.5l0,0c-0.9,0.2-1.9,0.3-2.8,0.3l0,0C464.4,216,459.5,212.3,458.2,206.8z M50.7,175.9     c-6-2.8-8.7-9.9-5.9-15.9l0,0c2.7-6,9.9-8.7,15.9-5.9l0,0c6,2.8,8.7,9.9,6,15.9l0,0c-2,4.4-6.4,7-10.9,7l0,0     C54,176.9,52.3,176.6,50.7,175.9z M445.2,169.5c-2.8-6-0.1-13.1,5.9-15.9l0,0c6-2.8,13.2-0.1,15.9,5.9l0,0     c2.8,6,0.1,13.1-5.9,15.9l0,0c-1.6,0.7-3.3,1.1-5,1.1l0,0C451.6,176.5,447.2,173.9,445.2,169.5z M69.6,138.5     c-5.4-3.8-6.7-11.3-2.8-16.7l0,0c3.8-5.4,11.3-6.7,16.7-2.8l0,0c5.4,3.8,6.7,11.3,2.8,16.7l0,0c-2.3,3.3-6,5.1-9.8,5.1l0,0     C74.1,140.7,71.7,140,69.6,138.5z M425.4,135.3L425.4,135.3c-3.9-5.4-2.6-12.9,2.8-16.7l0,0c5.4-3.9,12.9-2.6,16.7,2.8l0,0     c3.8,5.4,2.6,12.9-2.8,16.7l0,0c-2.1,1.5-4.6,2.2-7,2.2l0,0C431.5,140.3,427.8,138.6,425.4,135.3z M95.2,105.4     c-4.6-4.8-4.4-12.4,0.4-17l0,0l0,0l0,0c4.8-4.6,12.4-4.4,17,0.4l0,0c4.6,4.8,4.4,12.4-0.4,17l0,0c-2.3,2.2-5.3,3.3-8.3,3.3l0,0     C100.7,109.1,97.6,107.8,95.2,105.4z M399.5,105.4L399.5,105.4c-4.8-4.6-5-12.2-0.4-17l0,0c4.6-4.8,12.2-5,17-0.4l0,0l0,0l0,0     c4.8,4.6,5,12.2,0.4,17l0,0c-2.4,2.5-5.5,3.7-8.7,3.7l0,0C404.8,108.7,401.8,107.6,399.5,105.4z M126.6,77.6     c-3.6-5.6-2-13,3.6-16.6l0,0l0,0l0,0c5.6-3.6,13-2,16.6,3.6l0,0c3.6,5.6,2,13-3.6,16.6l0,0c-2,1.3-4.3,1.9-6.5,1.9l0,0     C132.8,83.1,128.9,81.2,126.6,77.6z M368.4,81c-5.6-3.6-7.2-11-3.6-16.6l0,0c3.6-5.6,11-7.2,16.6-3.6l0,0l0,0l0,0     c5.6,3.6,7.2,11,3.6,16.6l0,0c-2.3,3.6-6.2,5.5-10.1,5.5l0,0C372.7,82.9,370.4,82.3,368.4,81z M162.7,56.3     c-2.5-6.1,0.5-13.1,6.6-15.6l0,0c6.1-2.5,13.1,0.5,15.6,6.6l0,0c2.5,6.1-0.5,13.1-6.6,15.6l0,0c-1.5,0.6-3,0.9-4.5,0.9l0,0     C169.1,63.9,164.6,61,162.7,56.3z M333.3,62.8L333.3,62.8c-6.2-2.5-9.1-9.4-6.7-15.6l0,0c2.5-6.2,9.5-9.1,15.6-6.7l0,0l0,0l0,0     c6.1,2.5,9.1,9.5,6.7,15.6l0,0c-1.9,4.7-6.4,7.5-11.1,7.5l0,0C336.3,63.7,334.8,63.4,333.3,62.8z M202.1,42.3     c-1.3-6.5,3-12.8,9.5-14.1l0,0c6.5-1.3,12.8,3,14.1,9.5l0,0c1.3,6.5-3,12.8-9.5,14.1h0c-0.8,0.1-1.5,0.2-2.3,0.2l0,0     C208.3,52,203.2,48,202.1,42.3z M295.4,51.7c-6.5-1.3-10.8-7.5-9.5-14l0,0c1.2-6.5,7.5-10.8,14-9.5l0,0c6.5,1.2,10.8,7.5,9.5,14     l0,0c-1.1,5.8-6.1,9.8-11.8,9.7l0,0C296.9,51.9,296.1,51.9,295.4,51.7z M243.5,36c0-6.6,5.4-12,12-12l0,0c0.1,0,0.2,0,0.3,0l0,0     c0.1,0,0.1,0,0.2,0l0,0c6.6,0,12,5.4,12,12l0,0c0,6.6-5.4,12-12,12l0,0c-0.1,0-0.2,0-0.2,0l0,0c-0.1,0-0.1,0-0.2,0l0,0     c0,0,0,0,0,0l0,0C248.9,48,243.5,42.6,243.5,36z" fill="#FFFFFF"/></g></g></g><path clip-rule="evenodd" d="M158.1,337.4c-9.3-3.1-15.6-9.2-18.9-18.4  c-8.2-22.5-10.6-116.8,5.2-135.4c5.4-6.3,12.3-10.1,20.6-10.9c42.5-4.6,174-3.9,189.1,1.5c8.9,3.2,15.2,9,18.6,17.9  c9,23.3,9.3,108.1-1.2,130.5c-2.8,6.1-7.5,10.4-13.4,13.5C342.2,344.4,178.9,344.3,158.1,337.4z M225.6,293.2  c25.6-13.3,50.9-26.4,76.6-39.7c-25.7-13.4-51.1-26.6-76.6-40C225.6,240.1,225.6,266.5,225.6,293.2z" fill="#FFFFFF" fill-rule="evenodd"/></svg>